<svg preserveAspectRatio="xMinYMin meet" viewBox="0 0 24 24" xmlns="http://www.w3.org/2000/svg"><path d="M11 4h1V3h1V2h1V1h1v3h1v1h1v1h1v9h-1v2h2v1h1v3h1v1h2v-1h-1v-2h1v-4h-1v-1h1v-1h1v1h1V0H0v25h3v-3h1v-1h1v-2h1v-1h1v-1h4v-1h-1v-1H9v-3H8V9h1V6h1V5h1Z" style="fill:#6acbac"/><path d="M24 15v4h1v-4Zm1 6h-1v1h1Z" style="fill:#6acbac"/><path d="M3 22v3h1v-3Zm2 0v-1H4v1Zm0-1h1v-1H5Zm1-2v1h1v-1Zm1 0h1v-1H7Zm11-1h-1v1h1Zm0 1v1h1v-1Zm1 1v1h1v-1Zm2 2v-1h-1v1Zm0 3h1v-3h-1Z" style="fill:#000"/><path d="M4 25h1v-3H4Zm1-3h1v-1H5Zm1-1h1v-1H6Zm2-1v-1H7v1Zm10 0v-1h-1v1Zm0 1h1v-1h-1Zm2 1v-1h-1v1Zm0 3h1v-3h-1Z" style="fill:#2b836b"/><path d="M6 19H5v1h1Zm0-1v1h1v-1Zm4 1v-1h1v-1H7v1h2v1Zm0 0v1h1v-1Zm0 6h1v-1h-1Zm1-4v1h1v-1Zm1-2v1h1v-1Zm2 3v-1h-1v1Zm1-4v1h1v-1h2v1h1v1h1v-2h-1v-1h-5v1Zm-1 1v1h1v-1Zm0 4v1h1v-1Zm3 0v-1h-1v1Zm-1 1v1h1v-1Z" style="fill:#042a1f"/><path d="M5 25h1v-3H5Zm2-4H6v1h1Zm0-1v1h1v-1Zm2-2H8v2h1Zm7 1v1h1v-1Zm1 2h1v-1h-1Zm2 0h-1v1h1Zm0 4h1v-3h-1Z" style="fill:#064b37"/><path d="M8 20v1H7v1H6v3h2v-3h1v-2Zm1 2v3h1v-3Zm1 0h1v-2h-1Zm2-2v3h1v-3Zm3 0h-1v2h1Zm0 5h1v-3h-1Zm1-3h2v-1h-1v-1h-1Zm3 0h-1v3h1Z" style="fill:#226051"/><path d="M10 6H9v3H8v1h1v1H8v1h1v3h1Zm0 9v1h1v-1Zm2 1h-1v3h1Zm3 1v-1h-2v3h1v-2Zm0-13v1h1V4Zm2 2V5h-1v1Zm1 0h-1v9h1Z" style="fill:#0c0c0c"/><path d="M9 11v-1H8v1Zm3 2h-2v2h1v1h1v1h1v-1h1v-1h-2Zm1 6v-1h-1v1Z" style="fill:#2c6538"/><path d="M9 22H8v3h1Zm1 1v1h1v-1Zm1 0h1v-1h-1Zm3-1h-1v1h1Zm0 3h1v-1h-1Zm3-3v1h-1v1h1v1h1v-3Z" style="fill:#e5c652"/><path d="M9 21h1v-2H9Zm7 0v-2h-1v2Z" style="fill:#ddd206"/><path d="M9 22h1v-1H9Zm1 0v1h1v-1Zm2 2h-1v1h1Zm2-1h-1v1h1Zm0-1v1h1v-1Zm2-1h-1v1h1Z" style="fill:#fff200"/><path d="M11 4v1h-1v1h2v1h2V6h-1V5h-1V4Zm1-1v1h1V3Zm1-1v1h1V2Zm1-1v1h1V1Zm0 6v1h1V7Zm2-1V5h-1v1Z" style="fill:#030303"/><path d="M10 6v1h1V6Zm3 2h-3v4h2v-1h-1v-1h1V9h1Z" style="fill:#3d9751"/><path d="M12 12v1h5v-1h-1v-1h-1v-1h1V9h-3v3Zm4-4v1h1V8Z" style="fill:#3d9751"/><path d="M11 6v1h-1v1h3v1h3V8h1V6h-2v2h-1V7h-2V6Zm-1 7h2v-1h-2Zm3 5v-1h-1v1Z" style="fill:#b0cf67"/><path d="M10 18v1h1v-1Zm4 0v1h1v-1Z" style="fill:#c1b809"/><path d="M11 11h1v-1h-1Zm2-2h-1v1h1Zm-1 2v1h1v-1Zm3 0h1v-1h-1Zm2-2h-1v1h1Zm-1 2v1h1v-1Z" style="fill:#010200"/><path d="M11 21h1v-2h-1Zm3 0v-2h-1v2Zm3-2v-1h-1v1Z" style="fill:#05402f"/><path d="M11 23v1h1v-1Zm2 2h1v-1h-1Z" style="fill:#f8f289"/><path d="M15 2h-1v1h-1v1h-1v1h1v1h1v1h1Z" style="fill:#1c2730"/><path d="M13 11v-1h-1v1Zm4 0v-1h-1v1Z" style="fill:#e60012"/><path d="M13 14v-1h-1v1Zm2-1h-1v1h1Zm2 0h-1v1h1Z" style="fill:#e8e8d5"/><path d="M13 15v-1h-1v1Zm4 0v-1h-1v1Z" style="fill:#323232"/><path d="M12 23v1h1v-1Z" style="fill:#f8f05c"/><path d="M12 24v1h1v-1Zm1-10h1v-1h-1Zm3 0v-1h-1v1Z" style="fill:#fff"/><path d="M13 14v1h1v-1Z" style="fill:#910000"/><path d="M15 16v1h2v-2h-1v-1h-2v2Z" style="fill:#c80000"/><path d="M22 14v1h1v-1Zm1-1v1h1v-1Zm0 2v1h1v-1Zm2 0v-1h-1v1Z" style="fill:#b3b8bb"/><path d="M22 19v1h1v-1Zm0 3v1h1v-1Zm2 0v-1h-1v1Zm0-3v1h1v-1Zm1 4v-1h-1v1Z" style="fill:#fd2b3a"/><path d="M22 21h1v-1h-1Zm0 2v1h1v-1Zm2-3v1h1v-1Zm0 3v1h1v-1Z" style="fill:#f11f2e"/><path d="M22 24v1h3v-1Z" style="fill:#660004"/><path d="M23 15h1v-1h-1Z" style="fill:#74797c"/><path d="M24 16h-1v1h1Z" style="fill:#939ba0"/><path d="M23 17v1h1v-1Z" style="fill:#8b9297"/><path d="M23 19h1v-1h-1Z" style="fill:#868e94"/><path d="M24 21v-2h-1v2Zm0 1h-1v2h1Z" style="fill:#18161d"/></svg>