<?xml version="1.0" standalone="no"?>
<!DOCTYPE svg PUBLIC "-//W3C//DTD SVG 20010904//EN"
 "http://www.w3.org/TR/2001/REC-SVG-20010904/DTD/svg10.dtd">
<svg version="1.0" xmlns="http://www.w3.org/2000/svg"
 width="600.000000pt" height="600.000000pt" viewBox="0 0 600.000000 600.000000"
 preserveAspectRatio="xMidYMid meet">

<g transform="translate(0.000000,600.000000) scale(0.100000,-0.100000)"
fill="#000000" stroke="none">
<path d="M0 3000 l0 -3000 394 0 c303 0 396 3 404 13 5 6 13 41 16 77 8 70 32
162 52 195 20 33 51 136 64 210 7 39 28 121 46 182 19 62 34 118 34 125 0 19
42 116 75 174 l29 52 63 -35 c35 -19 63 -32 63 -29 0 4 9 2 19 -4 27 -14 68 3
83 34 15 34 -7 67 -65 94 -62 29 -143 109 -152 149 -3 18 -1 59 5 90 9 46 21
67 53 100 l41 43 45 -48 c48 -51 201 -172 217 -172 5 0 31 -11 58 -25 27 -14
54 -25 59 -25 5 0 42 -15 81 -34 39 -19 94 -41 121 -50 76 -22 117 -37 147
-53 16 -8 28 -12 28 -9 0 3 17 0 38 -8 20 -8 73 -20 117 -27 44 -6 85 -15 90
-19 6 -4 48 -12 95 -19 47 -7 105 -16 130 -21 25 -6 59 -12 75 -15 31 -5 621
-6 690 -1 169 14 213 18 234 23 13 3 31 7 40 8 9 1 23 4 31 8 8 3 53 12 100
21 47 8 105 20 130 26 25 5 61 13 80 16 19 4 42 12 50 19 8 7 42 21 75 30 33
9 75 24 94 33 19 10 37 17 40 17 3 0 11 3 17 7 6 4 40 18 76 31 l66 24 -18
-61 c-43 -151 -55 -178 -77 -187 -13 -5 -44 -30 -70 -57 -46 -47 -101 -82
-130 -82 -15 0 -143 -67 -207 -108 -22 -14 -50 -31 -61 -37 -11 -7 -29 -17
-40 -23 -11 -6 -45 -23 -75 -37 -30 -15 -80 -50 -111 -78 -31 -29 -75 -67 -97
-85 -43 -34 -55 -69 -29 -90 6 -5 35 -13 62 -17 59 -8 225 -49 310 -75 166
-53 235 -71 284 -75 29 -2 69 -7 88 -11 31 -6 34 -9 28 -33 -4 -14 -11 -32
-17 -39 -20 -23 -56 -101 -50 -106 3 -4 26 -6 51 -6 44 0 47 2 76 48 36 58 75
140 75 157 0 6 28 39 63 71 96 90 93 88 119 70 52 -37 127 -12 200 66 33 36
52 121 45 201 l-5 58 46 42 c76 70 152 151 152 163 0 7 12 15 27 18 29 8 43
-6 36 -34 -6 -22 39 -95 69 -112 30 -16 42 -18 108 -22 67 -4 119 16 173 68
42 41 50 42 140 21 36 -8 84 -17 107 -20 24 -3 47 -8 51 -11 5 -3 19 -8 31
-11 74 -17 164 -36 243 -49 137 -23 137 -23 133 -41 -3 -15 -63 -59 -108 -80
-8 -3 -25 -17 -37 -30 -12 -13 -25 -23 -30 -23 -4 0 -16 -9 -28 -20 -11 -11
-47 -42 -80 -68 -33 -27 -99 -87 -147 -134 -96 -92 -105 -115 -68 -168 10 -15
35 -56 54 -91 l35 -64 215 -3 216 -2 0 3000 0 3000 -3000 0 -3000 0 0 -3000z
m3420 2567 c14 -8 24 -19 23 -25 -2 -7 1 -12 6 -12 5 0 20 -19 34 -43 25 -43
40 -103 40 -164 1 -29 -31 -152 -53 -208 -15 -37 -23 -60 -25 -70 -2 -6 -12
-32 -24 -57 -11 -26 -21 -51 -21 -56 0 -5 -20 -47 -45 -93 -24 -46 -55 -104
-67 -129 -12 -25 -26 -46 -30 -48 -4 -2 -8 -12 -8 -21 0 -10 -12 -31 -26 -47
-28 -32 -64 -100 -64 -121 0 -7 -3 -13 -8 -13 -7 0 -21 -30 -43 -91 -10 -30
-20 -39 -53 -50 -49 -15 -76 -36 -76 -59 0 -37 22 -41 187 -35 175 7 281 7
360 0 56 -5 51 -9 97 82 6 13 14 23 19 23 4 0 7 8 7 17 0 9 6 24 13 32 7 9 22
36 33 61 19 44 56 111 111 199 15 25 39 63 52 85 13 23 27 43 30 46 9 7 81
109 81 115 0 10 104 152 140 190 21 22 60 64 86 94 91 100 116 122 249 218 33
24 133 75 180 93 77 29 200 31 272 5 64 -23 113 -64 117 -96 2 -13 11 -51 21
-84 17 -57 17 -64 0 -155 -10 -52 -21 -99 -25 -105 -4 -5 -17 -42 -29 -82 -12
-40 -26 -75 -31 -78 -6 -3 -10 -14 -10 -24 0 -10 -9 -26 -20 -36 -11 -10 -20
-26 -20 -37 0 -10 -4 -18 -10 -18 -5 0 -10 -6 -10 -14 0 -8 -7 -16 -15 -20 -8
-3 -15 -10 -15 -16 0 -6 -6 -17 -12 -24 -7 -7 -22 -25 -33 -41 -11 -15 -27
-35 -35 -44 -8 -9 -24 -33 -34 -53 -10 -21 -37 -57 -60 -81 -51 -53 -133 -148
-160 -186 -12 -16 -41 -55 -66 -87 -25 -32 -55 -76 -66 -98 -22 -40 -22 -41
-3 -77 19 -37 90 -96 144 -120 17 -8 32 -16 35 -19 3 -3 32 -27 65 -52 33 -25
87 -76 120 -112 33 -37 77 -83 98 -103 20 -20 37 -42 37 -50 0 -7 7 -16 15
-19 8 -4 15 -12 15 -19 0 -6 8 -27 17 -46 10 -19 18 -40 19 -48 2 -7 23 -55
47 -105 38 -77 53 -112 62 -146 1 -3 4 -12 8 -20 3 -8 15 -72 27 -141 22 -139
28 -254 16 -338 -4 -30 -8 -72 -8 -93 0 -21 -5 -41 -10 -44 -5 -3 -6 -14 -3
-25 3 -10 0 -33 -9 -51 -8 -18 -17 -49 -21 -68 -10 -58 -58 -214 -70 -230 -6
-8 -24 -42 -39 -75 -16 -33 -43 -80 -60 -105 -39 -57 -51 -80 -60 -114 -4 -15
-18 -44 -31 -64 -13 -20 -30 -52 -36 -70 -6 -19 -35 -56 -63 -83 l-51 -50 -67
72 c-64 68 -69 71 -90 57 -12 -8 -27 -30 -33 -49 -7 -19 -29 -68 -50 -109 -20
-41 -46 -100 -57 -130 -11 -30 -27 -62 -34 -71 -8 -8 -14 -20 -14 -25 0 -27
-387 -175 -590 -225 -95 -24 -90 -24 -90 11 0 36 -25 41 -34 6 -7 -29 -60 -56
-110 -56 l-36 0 0 58 c0 62 8 102 20 102 4 0 24 -12 46 -26 36 -25 38 -25 51
-8 7 10 11 25 8 32 -3 8 -5 25 -5 38 0 27 -17 32 -34 9 -6 -9 -25 -17 -43 -19
-30 -4 -32 -2 -38 36 -4 22 -4 59 0 84 6 44 6 44 48 44 40 0 117 -40 117 -61
0 -5 7 -9 15 -9 11 0 15 12 15 49 l0 49 -150 1 c-98 1 -150 -2 -150 -9 0 -5 5
-10 10 -10 10 0 9 -49 -5 -275 -3 -47 -9 -72 -19 -77 -9 -5 -13 -15 -10 -22 4
-10 -9 -15 -48 -18 -89 -9 -639 -6 -708 3 -36 5 -94 11 -130 15 -36 3 -76 10
-90 15 -14 5 -42 11 -63 13 -21 3 -44 9 -50 13 -7 5 -25 10 -42 11 -16 2 -61
10 -100 18 -61 14 -91 24 -155 54 -8 4 -40 13 -70 20 -30 7 -82 23 -115 35
-33 13 -70 26 -82 30 -13 3 -23 11 -23 16 0 5 -7 9 -15 9 -8 0 -15 5 -15 10 0
6 -7 10 -16 10 -37 0 -196 112 -259 182 -16 18 -49 58 -73 88 -24 30 -47 57
-51 60 -15 11 -131 216 -131 232 0 4 -15 40 -34 80 -18 40 -39 96 -45 123 -6
28 -14 57 -16 65 -22 66 -43 196 -50 291 l-7 114 26 -24 c14 -14 26 -30 26
-38 0 -7 5 -13 11 -13 7 0 33 -21 60 -47 127 -127 188 -183 198 -183 14 0 82
92 175 235 43 66 86 131 95 145 9 14 40 72 69 130 48 95 53 111 53 172 1 145
-53 209 -161 193 -25 -4 -47 -7 -50 -8 -12 -1 -96 -49 -112 -64 -10 -9 -28
-21 -40 -27 -13 -6 -43 -37 -68 -68 -50 -62 -47 -63 -97 7 -12 17 -44 46 -72
65 -52 37 -59 58 -33 107 7 12 25 56 41 97 16 42 45 98 65 125 20 27 36 53 36
58 0 6 9 18 20 28 11 10 20 23 20 29 0 6 9 17 20 24 11 7 20 16 20 22 0 8 159
177 212 225 12 11 45 40 73 65 27 25 67 57 87 70 21 14 38 28 38 33 0 4 7 7
15 7 8 0 19 8 24 18 9 18 165 102 189 102 7 0 12 4 12 10 0 5 12 12 28 16 33
7 72 24 92 40 8 7 29 14 45 15 17 2 35 7 41 11 6 4 41 17 78 28 65 20 67 23
90 73 13 29 33 81 45 117 25 72 78 184 116 245 28 43 45 81 45 96 0 5 10 26
23 47 13 20 32 59 43 85 10 26 26 56 34 65 22 24 88 134 99 165 6 15 15 27 20
27 5 0 13 9 16 21 4 11 26 44 49 72 23 29 54 69 68 91 33 48 142 161 191 199
39 29 111 59 121 50 3 -3 12 -1 19 5 42 35 228 54 277 29z m-117 -1190 c18 -8
38 -12 46 -9 8 2 11 0 8 -5 -4 -6 -41 -11 -84 -12 -76 -1 -76 -1 -58 19 21 23
43 25 88 7z m-1748 -1317 c3 -5 8 -39 12 -75 6 -64 4 -70 -37 -151 -26 -50
-49 -84 -58 -84 -8 0 -13 -3 -9 -6 8 -9 -41 -104 -53 -104 -6 0 -10 -6 -10
-14 0 -7 -7 -19 -16 -27 -9 -7 -25 -32 -36 -55 -10 -23 -28 -50 -39 -60 -10
-9 -19 -23 -19 -30 0 -7 -9 -18 -20 -24 -12 -6 -17 -16 -13 -26 3 -9 0 -20 -7
-24 -14 -9 -172 128 -274 238 l-49 52 12 63 c7 34 15 107 17 162 3 55 9 104
13 108 7 7 71 -43 71 -56 0 -2 19 -23 41 -46 34 -33 40 -46 36 -68 -3 -16 -8
-45 -12 -65 -8 -42 5 -68 35 -68 22 0 49 30 49 55 -1 26 16 91 35 135 23 55
119 142 188 170 31 12 135 12 143 0z m3001 -1473 c40 -45 80 -105 98 -149 9
-20 21 -40 27 -43 7 -5 2 -16 -13 -34 -35 -37 -58 -77 -58 -99 0 -10 -4 -22
-9 -27 -6 -6 -3 -31 9 -65 16 -47 24 -58 57 -72 21 -10 46 -18 55 -18 13 0 16
-7 11 -34 -5 -35 12 -106 27 -106 4 0 11 -8 14 -17 5 -13 -14 -37 -75 -94
l-82 -76 -44 25 c-92 51 -171 22 -218 -82 -32 -69 -42 -187 -20 -230 13 -24 9
-29 -79 -120 -90 -93 -93 -95 -129 -89 -20 3 -34 9 -32 13 3 5 -25 11 -62 15
-38 4 -84 11 -103 17 -87 24 -192 51 -268 68 -45 11 -87 22 -93 26 -6 3 -24 8
-41 11 -72 11 -72 15 0 69 60 47 87 61 117 65 6 1 21 10 34 20 13 11 28 19 32
19 5 0 28 14 51 30 22 17 45 30 50 30 4 0 25 10 46 23 20 13 53 29 72 36 19 7
54 22 77 32 24 11 47 19 53 19 6 0 27 11 48 24 21 13 51 26 68 30 20 4 35 17
46 39 19 37 88 215 88 227 0 5 5 21 12 37 6 15 10 35 9 45 -1 9 3 19 9 23 6 3
8 10 6 14 -7 11 17 85 47 151 15 30 37 84 50 120 35 93 66 160 76 160 4 0 21
-15 37 -33z m349 -33 c39 -6 110 -32 103 -39 -2 -2 -32 -6 -66 -8 -39 -3 -83
-15 -113 -30 l-49 -24 -25 25 -25 25 22 25 c30 31 57 43 88 37 14 -3 43 -8 65
-11z m-1498 -156 c-2 -13 -4 -5 -4 17 -1 22 1 32 4 23 2 -10 2 -28 0 -40z
m1629 -17 c16 -5 28 -14 26 -20 -1 -7 2 -10 8 -6 10 6 55 -23 104 -68 13 -12
35 -33 50 -46 61 -54 89 -198 53 -270 -27 -55 -90 -121 -124 -130 -48 -13
-102 4 -114 36 -8 22 -5 32 19 62 41 51 46 74 23 95 -18 16 -23 16 -77 1 -121
-33 -158 -32 -161 7 -2 24 22 58 41 58 14 0 46 52 46 74 0 23 -38 39 -74 31
-64 -14 -115 -16 -135 -6 -20 11 -20 13 -6 49 19 44 88 118 130 138 31 14 132
12 191 -5z m-1627 -78 l-1 -68 -9 45 c-9 42 -5 90 6 90 3 0 5 -30 4 -67z"/>
<path d="M3056 3199 c-21 -56 -28 -98 -32 -178 -3 -58 -7 -107 -8 -110 -7 -13
15 -165 25 -178 6 -7 8 -13 4 -13 -4 0 0 -11 9 -25 9 -13 16 -33 16 -45 0 -11
9 -28 20 -37 11 -10 20 -23 20 -31 0 -7 7 -15 15 -18 8 -4 15 -11 15 -18 0
-14 67 -71 119 -102 50 -30 174 -48 235 -34 101 23 219 109 259 190 40 79 60
188 61 333 1 102 5 146 14 156 7 7 11 20 8 28 -3 8 -6 18 -6 23 0 4 -16 11
-36 14 -42 8 -381 9 -393 1 -5 -3 -73 -7 -150 -9 l-141 -4 6 52 c4 28 7 55 8
61 0 5 -9 11 -20 13 -18 3 -25 -8 -48 -69z m169 -226 c-8 -175 46 -290 142
-301 51 -6 82 12 117 66 38 58 63 244 41 312 l-7 23 98 -7 c55 -4 101 -9 103
-12 2 -2 4 -63 3 -136 -1 -102 -5 -148 -20 -195 -47 -150 -178 -229 -347 -208
-49 7 -63 14 -111 57 -29 28 -54 56 -54 63 0 7 -7 18 -15 25 -8 7 -20 30 -27
51 -6 22 -15 39 -20 39 -6 0 -8 6 -5 13 2 6 0 20 -5 29 -5 10 -11 74 -13 142
l-4 125 57 3 c31 2 60 2 64 0 4 -2 6 -41 3 -89z"/>
<path d="M1750 3201 c-11 -23 -18 -41 -15 -41 3 0 -2 -16 -10 -37 -8 -20 -18
-77 -21 -127 -3 -50 -7 -95 -8 -101 -8 -24 16 -152 39 -217 24 -66 59 -129 77
-136 4 -2 8 -8 8 -14 0 -15 21 -32 80 -62 46 -24 71 -29 155 -33 94 -5 104 -4
157 22 75 36 112 74 153 160 67 143 87 224 86 359 -1 96 -7 133 -27 163 -14
22 -17 23 -197 18 -100 -2 -213 -7 -252 -10 -38 -4 -90 -7 -115 -8 l-45 -2 0
50 c0 44 -3 50 -22 53 -17 3 -27 -6 -43 -37z m601 -190 c0 -25 2 -57 4 -71 6
-56 -36 -216 -70 -260 -6 -8 -20 -32 -30 -52 -11 -22 -40 -51 -70 -70 -44 -29
-58 -33 -115 -32 -41 0 -77 7 -98 18 -36 19 -113 91 -110 104 1 4 -3 17 -10
28 -14 26 -39 103 -41 124 0 8 -4 66 -7 128 l-6 112 44 0 43 0 1 -98 c2 -80 6
-107 27 -154 30 -67 60 -87 141 -90 49 -2 60 1 79 22 45 49 73 174 63 277 l-6
62 80 -1 80 0 1 -47z"/>
<path d="M4084 3072 c-6 -4 -14 -37 -18 -74 -8 -78 -39 -154 -100 -243 -24
-35 -61 -99 -82 -142 -33 -67 -39 -89 -42 -158 -3 -74 -1 -83 26 -125 55 -86
151 -130 232 -106 45 13 74 36 113 89 16 20 31 37 35 37 4 0 32 -23 62 -51
112 -103 199 -115 264 -36 51 62 99 172 104 238 4 49 0 65 -28 117 -17 32 -42
65 -56 72 -13 8 -24 17 -24 21 0 5 -21 22 -47 40 -27 17 -62 46 -79 64 -16 18
-48 42 -69 54 -22 11 -76 54 -121 95 -71 65 -139 116 -154 116 -3 0 -10 -4
-16 -8z m188 -240 c59 -32 76 -44 123 -90 28 -27 63 -52 78 -56 15 -3 25 -11
22 -16 -3 -6 0 -10 8 -10 23 0 72 -59 69 -83 -2 -16 -1 -18 6 -8 8 11 12 9 22
-10 20 -36 16 -90 -10 -139 -12 -25 -22 -47 -22 -50 1 -3 -11 -20 -26 -37 -20
-25 -35 -33 -59 -33 -34 0 -83 18 -83 30 0 4 -13 13 -30 20 -16 7 -30 16 -30
21 0 4 -9 11 -20 14 -29 9 -25 26 15 65 44 43 49 90 10 90 -14 0 -25 -4 -25
-9 0 -5 -9 -11 -21 -14 -12 -3 -18 -10 -15 -15 3 -5 -26 -43 -65 -83 -39 -41
-75 -82 -81 -92 -14 -27 -75 -50 -114 -42 -22 4 -47 22 -78 56 -45 50 -45 51
-42 113 3 50 13 82 47 152 24 49 59 110 77 137 38 52 81 166 82 211 0 28 2 27
69 -40 38 -39 80 -76 93 -82z"/>
<path d="M4096 2773 c-6 -14 -5 -15 5 -6 7 7 10 15 7 18 -3 3 -9 -2 -12 -12z"/>
<path d="M4034 2669 c-17 -18 -22 -28 -12 -24 14 6 55 55 45 55 -2 0 -16 -14
-33 -31z"/>
<path d="M4346 2434 c-6 -16 2 -18 22 -5 11 7 11 9 -1 14 -9 3 -18 -1 -21 -9z"/>
<path d="M2645 2308 c-2 -7 -5 -20 -8 -28 -2 -8 2 -30 10 -49 16 -40 14 -43
-52 -66 -27 -10 -68 -26 -91 -36 -22 -11 -65 -21 -95 -24 -30 -3 -76 -7 -104
-9 -78 -7 -90 -11 -93 -33 -4 -29 18 -43 89 -54 35 -6 64 -11 65 -12 1 -1 3
-33 5 -72 6 -145 14 -151 197 -152 112 0 146 -4 160 -16 16 -13 116 -33 152
-30 8 1 40 3 70 4 83 3 126 16 144 44 9 14 15 25 12 25 -5 0 46 150 56 166 4
6 21 14 37 17 17 4 38 18 48 33 16 26 16 27 -5 44 -18 15 -42 18 -127 19 -124
1 -195 14 -250 46 -55 32 -131 101 -167 153 -30 43 -46 52 -53 30z m30 -331
l1 -102 -71 2 c-38 1 -86 2 -106 3 -35 0 -36 1 -47 51 -7 28 -12 54 -12 58 0
4 33 20 73 35 39 16 86 34 102 41 59 27 60 25 60 -88z m160 53 c8 -6 19 -9 25
-5 5 3 10 2 10 -3 0 -10 17 -15 125 -33 39 -7 71 -13 72 -14 2 -1 -2 -15 -7
-31 -6 -16 -15 -47 -20 -70 l-10 -41 -75 -6 c-42 -4 -97 -2 -124 4 l-49 10
-11 82 c-6 45 -14 99 -17 119 l-6 37 37 -19 c20 -10 42 -24 50 -30z"/>
<path d="M2505 1620 c-6 -10 1 -59 10 -68 2 -3 -12 -13 -33 -22 -55 -25 -80
-71 -91 -169 -14 -125 15 -192 96 -226 19 -8 56 -15 82 -15 39 0 52 6 90 39
l45 40 5 103 6 103 87 0 87 0 37 -110 c20 -60 40 -117 44 -125 5 -9 2 -19 -8
-26 -25 -18 -15 -22 65 -25 77 -4 99 5 70 26 -18 13 -18 16 -3 69 9 30 31 88
50 128 18 40 37 83 40 96 4 12 11 20 15 17 12 -7 47 22 38 31 -11 12 -88 7
-101 -6 -8 -8 -6 -15 7 -24 16 -12 15 -17 -12 -77 -16 -35 -37 -90 -47 -121
-10 -32 -21 -58 -25 -58 -4 0 -13 17 -19 38 -6 20 -15 46 -20 57 -5 11 -17 46
-28 77 l-20 57 39 35 c45 40 47 50 16 71 -21 13 -29 13 -76 0 -29 -9 -92 -16
-144 -17 -99 0 -150 16 -203 65 -43 40 -53 47 -73 47 -11 0 -22 -4 -26 -10z
m67 -138 c7 -9 25 -25 41 -35 34 -22 35 -51 5 -160 -32 -120 -69 -143 -127
-79 -22 24 -23 32 -19 107 6 84 27 151 55 173 22 16 29 15 45 -6z m-135 -114
c-3 -7 -5 -2 -5 12 0 14 2 19 5 13 2 -7 2 -19 0 -25z m237 -53 c-4 -8 -8 -15
-10 -15 -2 0 -4 7 -4 15 0 8 4 15 10 15 5 0 7 -7 4 -15z m293 -17 c-3 -7 -5
-2 -5 12 0 14 2 19 5 13 2 -7 2 -19 0 -25z m-294 -39 c-4 -15 -8 -17 -14 -8
-6 11 4 28 18 29 0 0 -1 -9 -4 -21z m-13 -33 c0 -11 -19 -15 -25 -6 -3 5 1 10
9 10 9 0 16 -2 16 -4z m363 -41 c4 -8 3 -16 -1 -19 -4 -3 -9 4 -9 15 -2 23 3
25 10 4z"/>
<path d="M1983 1483 c-25 -5 -32 -23 -9 -23 10 0 17 -30 27 -116 12 -108 11
-117 -5 -126 -13 -8 -15 -13 -5 -24 15 -19 234 -20 245 -2 12 19 4 92 -11 107
-12 13 -16 11 -24 -12 -9 -23 -63 -67 -81 -67 -9 0 -43 231 -35 238 4 4 12 7
18 7 5 0 12 6 15 13 3 9 -12 12 -55 11 -32 -1 -68 -4 -80 -6z m67 -90 c0 -7
-4 -13 -10 -13 -5 0 -10 12 -10 28 0 21 2 24 10 12 5 -8 10 -21 10 -27z m10
-125 c-1 -28 -2 -30 -11 -15 -6 10 -8 25 -5 33 9 24 16 16 16 -18z"/>
<path d="M1326 2941 c-10 -11 -16 -26 -13 -33 4 -10 6 -10 6 1 1 8 8 23 18 33
9 10 14 18 11 18 -3 0 -13 -9 -22 -19z"/>
<path d="M1250 2836 c-15 -42 -11 -55 6 -17 8 19 12 36 9 39 -2 3 -9 -7 -15
-22z"/>
<path d="M1298 2733 c-2 -22 -9 -29 -30 -31 -16 -2 -28 -6 -28 -9 0 -10 51
-53 63 -53 20 0 41 59 31 88 -13 36 -32 39 -36 5z"/>
<path d="M1690 934 c-12 -21 -11 -27 9 -48 12 -12 41 -29 64 -36 23 -6 49 -18
57 -24 55 -46 162 -88 280 -110 41 -8 140 -28 219 -44 80 -17 147 -30 150 -30
3 1 33 -1 66 -5 178 -21 501 -30 593 -16 191 28 260 46 422 108 99 38 116 53
104 84 -4 10 -25 9 -107 -5 -56 -10 -124 -20 -151 -23 -27 -3 -53 -8 -57 -11
-8 -5 -132 -20 -264 -32 -38 -4 -117 -4 -175 0 -58 3 -157 9 -220 12 -171 10
-207 13 -297 30 -118 23 -241 44 -288 50 -76 11 -100 17 -131 35 -43 26 -182
77 -225 84 -31 5 -38 2 -49 -19z"/>
<path d="M1372 787 c-10 -12 -46 -140 -59 -212 -3 -16 -9 -35 -14 -40 -4 -6
-8 -20 -8 -30 0 -11 -5 -45 -11 -75 -5 -30 -13 -71 -16 -90 -3 -19 -8 -52 -12
-74 l-7 -39 -34 53 c-19 29 -51 70 -72 92 -32 34 -41 39 -54 28 -22 -18 -19
-38 14 -101 42 -82 75 -130 110 -163 27 -26 31 -36 31 -83 l0 -53 39 0 c43 0
43 -1 57 105 7 57 11 78 20 118 6 30 7 38 19 132 4 33 9 63 11 67 6 10 23 140
30 223 3 39 7 81 8 95 6 48 -27 78 -52 47z"/>
<path d="M4904 630 c-53 -21 -65 -81 -24 -112 51 -38 131 8 116 66 -12 49 -45
65 -92 46z"/>
<path d="M2545 434 c-71 -8 -135 -16 -141 -18 -9 -4 -28 -43 -102 -216 -8 -19
-32 -71 -53 -115 l-38 -80 80 -3 c63 -2 84 0 93 12 17 24 355 25 372 2 9 -13
34 -16 138 -16 122 0 126 1 116 19 -17 32 -13 37 48 64 71 32 87 49 113 118
34 93 8 165 -80 217 -42 25 -50 26 -230 28 -114 2 -236 -3 -316 -12z m381 -61
c23 -9 55 -90 48 -121 -11 -52 -37 -102 -63 -119 -21 -14 -57 -18 -181 -23
-85 -3 -190 -3 -233 -1 -78 3 -79 3 -72 28 8 35 85 216 96 228 20 20 355 27
405 8z"/>
<path d="M4845 322 c-6 -5 -25 -15 -43 -22 -28 -11 -41 -10 -93 5 -32 10 -62
15 -65 12 -11 -11 5 -55 23 -62 10 -4 45 -9 78 -11 51 -4 67 0 110 23 28 16
50 35 50 43 0 17 -45 26 -60 12z"/>
</g>
</svg>
