<?xml version="1.0" standalone="no"?>
<!DOCTYPE svg PUBLIC "-//W3C//DTD SVG 20010904//EN"
 "http://www.w3.org/TR/2001/REC-SVG-20010904/DTD/svg10.dtd">
<svg version="1.0" xmlns="http://www.w3.org/2000/svg"
 width="600.000000pt" height="600.000000pt" viewBox="0 0 600.000000 600.000000"
 preserveAspectRatio="xMidYMid meet">

<g transform="translate(0.000000,600.000000) scale(0.100000,-0.100000)"
fill="#000000" stroke="none">
<path d="M5080 4794 c-36 -6 -94 -17 -130 -23 -36 -7 -74 -16 -85 -21 -11 -5
-54 -21 -95 -35 -41 -14 -88 -32 -105 -39 -16 -7 -50 -22 -75 -32 -25 -10 -63
-30 -85 -44 -22 -15 -67 -41 -101 -59 -33 -18 -88 -58 -122 -91 l-61 -58 -53
28 c-29 15 -72 31 -95 35 -24 4 -43 11 -43 15 0 5 -15 11 -32 15 -18 3 -42 10
-53 14 -61 25 -200 54 -310 66 -27 3 -63 7 -80 9 -135 15 -320 21 -610 20
-354 -1 -379 -3 -610 -54 -86 -18 -138 -36 -197 -65 -16 -8 -28 -10 -28 -6 0
5 -8 11 -17 15 -10 3 -47 24 -83 47 -87 55 -251 133 -325 154 -33 9 -73 21
-90 27 -148 51 -336 88 -362 72 -11 -7 -17 -26 -18 -55 -1 -25 -7 -54 -13 -64
-16 -29 -35 -185 -38 -300 -2 -110 17 -306 34 -345 6 -14 23 -65 38 -115 15
-49 31 -95 35 -101 6 -7 -7 -23 -34 -45 -23 -18 -44 -37 -46 -42 -2 -5 -15
-23 -30 -41 -33 -40 -44 -58 -76 -126 -14 -30 -31 -64 -38 -76 -37 -64 -76
-144 -87 -179 -7 -22 -19 -49 -26 -60 -18 -27 -50 -138 -59 -200 -4 -27 -10
-54 -13 -59 -6 -11 -7 -19 -17 -191 -14 -230 -8 -420 15 -519 6 -27 13 -68 16
-92 5 -47 4 -48 -71 -60 -99 -15 -215 -110 -261 -214 -38 -86 -41 -201 -7
-270 33 -65 190 -223 241 -241 9 -3 27 -9 40 -14 12 -4 22 -11 22 -15 0 -10
77 -60 164 -109 34 -18 63 -35 65 -36 1 -2 -8 -19 -22 -37 -13 -18 -30 -49
-36 -68 -7 -19 -23 -53 -36 -75 -14 -22 -36 -62 -51 -90 -15 -27 -30 -51 -35
-53 -5 -2 -9 -10 -9 -18 0 -8 -4 -22 -9 -32 -8 -16 -17 -37 -55 -125 -9 -21
-16 -46 -16 -57 0 -10 -4 -21 -9 -24 -5 -4 -12 -25 -16 -49 -7 -47 -23 -111
-35 -142 -18 -49 -49 -167 -55 -210 -2 -11 -8 -47 -13 -80 -6 -33 -12 -80 -14
-105 l-3 -45 56 -3 57 -3 6 58 c11 90 16 114 27 135 6 11 8 22 6 24 -3 3 1 28
9 57 7 28 11 53 9 56 -3 2 -1 9 5 16 8 10 34 101 46 165 3 14 7 34 9 45 4 17
13 21 56 23 84 4 148 27 188 70 42 43 82 99 85 115 1 7 4 17 8 22 13 21 -1
144 -21 182 -21 41 -62 88 -83 96 -10 3 -10 10 3 33 13 25 20 29 54 26 22 -2
58 -12 82 -23 23 -10 52 -19 65 -19 13 0 55 -6 93 -13 39 -8 84 -13 100 -11
36 2 203 -25 227 -37 9 -5 32 -11 50 -13 19 -3 46 -8 62 -12 15 -3 101 -8 190
-9 200 -2 373 -13 449 -27 48 -9 57 -14 57 -32 0 -11 -5 -79 -10 -151 -12
-147 -14 -561 -4 -637 8 -61 11 -87 13 -115 1 -20 7 -23 42 -23 l42 0 -7 118
c-8 147 -9 799 -1 812 3 6 25 10 48 10 46 0 76 -13 58 -24 -6 -4 -11 -36 -11
-76 0 -42 -4 -70 -11 -72 -9 -3 -13 -113 -17 -386 l-4 -382 91 0 92 0 -7 163
c-7 194 -7 384 2 607 l6 165 224 0 c123 0 224 -2 223 -5 0 -3 -6 -31 -13 -64
-11 -53 -16 -61 -52 -80 -21 -12 -58 -34 -81 -49 -50 -31 -51 -37 -43 -202 2
-27 9 -60 17 -73 24 -38 96 -103 133 -119 19 -8 37 -18 40 -22 9 -11 188 -101
202 -101 7 0 26 7 43 16 19 10 31 11 33 5 8 -25 77 -97 133 -140 41 -31 62
-55 66 -74 5 -26 8 -28 52 -25 45 3 46 4 43 33 -5 38 -37 91 -69 112 -26 17
-61 46 -117 95 l-31 28 35 29 c33 28 35 28 48 10 18 -26 47 -40 113 -53 62
-13 91 -7 126 26 21 20 43 18 43 -5 0 -7 18 -22 39 -34 47 -27 117 -25 178 3
50 24 70 48 89 112 19 63 38 74 132 74 60 0 63 2 78 31 15 28 15 31 -1 43 -27
20 -97 27 -156 15 -51 -10 -110 -8 -574 14 -60 3 -144 9 -185 15 -41 5 -104
12 -139 16 -58 6 -94 25 -97 52 0 4 -6 20 -13 36 -15 37 -12 162 5 211 7 21
25 50 39 65 32 34 122 83 185 101 48 14 88 34 132 63 21 14 33 15 61 8 19 -6
48 -7 64 -3 42 9 92 55 99 90 6 27 4 31 -14 31 -11 0 -27 -6 -34 -13 -19 -19
-54 -37 -72 -37 -13 0 -13 4 2 30 9 16 20 30 25 30 4 0 7 7 7 15 0 8 4 15 8
15 5 0 14 10 19 22 22 47 70 92 153 146 122 78 119 77 185 101 76 28 249 32
335 6 30 -9 62 -17 70 -20 33 -8 66 -24 88 -43 l22 -20 -22 -14 c-13 -9 -40
-32 -60 -53 -32 -33 -48 -59 -89 -146 -4 -9 1 -40 11 -70 16 -46 24 -57 57
-71 21 -10 46 -18 56 -18 15 0 17 -6 11 -34 -15 -84 35 -135 144 -144 52 -4
53 -5 47 -32 -11 -48 48 -124 105 -138 54 -12 129 -8 173 9 27 11 52 17 55 15
4 -2 15 -22 26 -43 10 -21 29 -58 41 -83 13 -25 33 -79 45 -120 12 -41 28 -87
36 -103 8 -15 13 -31 10 -35 -3 -4 7 -39 20 -78 20 -54 62 -244 64 -286 0 -5
21 -8 46 -8 l47 0 -6 73 c-6 61 -18 117 -44 200 -4 13 -1 16 13 11 64 -20 174
-74 174 -85 0 -5 -16 -30 -36 -56 -20 -27 -41 -59 -47 -73 -6 -14 -20 -35 -31
-48 l-20 -23 63 3 c63 3 63 3 86 45 27 52 73 114 97 131 23 17 23 61 1 79 -16
12 -58 33 -128 63 -125 54 -136 61 -130 83 4 12 15 33 25 47 28 41 57 102 79
168 35 103 29 116 -65 133 -52 10 -99 13 -230 18 -32 1 -45 7 -63 32 l-22 30
33 57 c32 55 33 61 35 172 1 63 -2 119 -6 125 -5 5 -16 31 -26 57 -18 48 -102
145 -159 185 l-29 20 21 21 c12 12 24 22 25 22 8 0 157 152 157 159 0 4 17 26
38 48 60 65 72 81 113 160 36 69 40 82 38 142 -4 110 -52 182 -154 232 -27 13
-57 31 -67 40 -19 16 -113 49 -143 49 -13 0 -16 6 -12 28 16 88 29 149 34 162
3 8 7 31 10 50 2 19 7 58 13 85 5 28 7 106 4 175 -3 69 -5 132 -5 140 0 8 -7
67 -15 130 -13 111 -30 179 -60 247 -8 17 -14 36 -14 42 0 6 -4 19 -9 29 -29
55 -50 102 -45 102 4 0 1 6 -5 14 -8 10 -6 24 9 59 11 26 26 50 33 54 13 8 57
95 57 112 0 5 6 14 14 20 8 7 17 27 20 46 4 18 20 62 35 97 16 35 32 77 35 93
17 89 27 127 36 145 6 11 9 24 6 28 -3 5 1 37 9 73 18 87 35 246 31 289 -2 19
-9 60 -15 90 -25 133 -31 144 -78 158 -59 17 -122 20 -193 6z m185 -151 c7
-70 2 -221 -10 -283 -2 -14 -9 -54 -16 -90 -10 -61 -15 -83 -40 -200 -5 -25
-20 -67 -33 -95 -34 -70 -52 -113 -69 -165 -25 -71 -84 -181 -111 -207 -34
-31 -35 -25 71 -337 9 -27 18 -63 20 -80 1 -17 10 -78 18 -136 28 -201 17
-482 -24 -595 -10 -27 -22 -75 -26 -105 -4 -30 -14 -64 -21 -75 -8 -11 -14
-26 -14 -34 0 -13 -49 -120 -60 -131 -3 -3 -21 -35 -40 -72 -19 -38 -38 -68
-41 -68 -8 0 -32 -51 -34 -70 -6 -50 -45 -88 -100 -95 -5 -1 -26 -5 -45 -8
-19 -4 -53 -10 -75 -12 -22 -3 -49 -7 -60 -9 -35 -7 -178 -27 -220 -31 -22 -2
-87 -11 -145 -19 -58 -8 -127 -18 -155 -21 -27 -3 -63 -7 -80 -10 -16 -3 -57
-7 -90 -10 -33 -3 -69 -8 -80 -10 -19 -4 -56 -8 -205 -20 -36 -2 -103 -8 -150
-12 -107 -8 -269 -8 -380 2 -47 4 -164 7 -260 6 -429 -2 -473 -1 -715 17 -77
6 -237 11 -355 11 -118 -1 -244 1 -280 5 -91 9 -255 28 -255 29 -1 1 -13 19
-28 39 -15 20 -27 41 -27 47 0 6 -4 11 -10 11 -5 0 -10 6 -10 14 0 8 -11 37
-25 64 -14 28 -25 57 -25 65 0 9 -6 20 -13 24 -8 4 -22 40 -31 78 -10 39 -22
79 -26 90 -44 109 -65 323 -56 580 6 185 11 219 59 400 2 6 11 25 20 43 10 17
15 32 13 32 -9 0 56 134 79 165 12 17 26 41 30 55 19 61 110 220 141 246 7 5
31 35 54 65 43 57 45 71 14 134 -16 32 -55 160 -56 185 0 8 -4 20 -8 25 -21
27 -33 353 -18 480 14 117 21 154 29 150 4 -3 20 -7 36 -9 39 -6 154 -36 178
-46 11 -5 47 -18 80 -29 100 -32 274 -111 347 -158 65 -40 148 -83 162 -83 7
0 38 11 68 25 53 24 93 35 258 69 165 34 209 37 523 37 299 0 388 -2 492 -15
22 -3 86 -10 143 -16 145 -16 392 -73 392 -91 0 -5 7 -9 15 -9 20 0 100 -27
155 -52 60 -27 111 -20 146 21 14 17 30 31 35 31 5 0 23 14 41 30 17 17 52 40
77 53 25 12 48 25 49 30 2 4 12 7 22 7 9 0 23 6 29 14 7 8 51 30 99 51 48 20
101 42 117 49 96 42 350 103 432 105 l71 1 7 -77z m-4566 -2700 c-33 -40 -41
-71 -37 -141 3 -60 7 -74 28 -92 49 -43 89 -55 207 -66 32 -3 61 -8 65 -10 12
-8 198 -23 286 -24 18 0 31 -3 29 -7 -3 -5 38 -8 91 -9 165 -1 594 -14 652
-19 252 -21 573 -28 1275 -28 112 0 295 11 400 23 44 5 109 12 145 15 36 4 79
8 95 10 119 16 205 27 237 30 20 2 55 6 78 10 49 8 49 -9 0 -18 -16 -4 -33 -7
-38 -8 -4 -1 -36 -18 -72 -37 -36 -19 -65 -34 -65 -33 0 1 -7 0 -15 -3 -8 -4
-51 -13 -95 -22 -44 -8 -93 -18 -110 -21 -16 -3 -250 -7 -520 -9 -269 -1 -533
-5 -585 -7 -151 -8 -367 -10 -378 -3 -9 6 -92 10 -385 21 -59 2 -131 8 -160
14 -28 5 -95 9 -147 7 -52 -1 -108 2 -125 6 -33 9 -249 12 -360 4 -46 -3 -110
2 -185 16 -63 11 -128 21 -145 23 -40 5 -121 32 -170 56 -22 10 -44 19 -50 19
-25 0 -44 60 -41 128 3 76 23 127 69 172 32 31 51 33 26 3z m4214 -224 c-17
-11 -42 -22 -56 -24 -13 -3 -60 -16 -103 -31 -43 -14 -99 -26 -124 -26 -112
-1 -313 2 -309 6 2 2 31 6 64 9 33 3 71 8 85 11 14 3 54 8 90 11 36 3 81 9
101 14 19 4 49 7 67 6 18 -1 32 1 32 4 0 4 8 7 18 8 9 1 44 8 77 16 84 20 95
20 58 -4z m143 -165 c-3 -9 -6 -20 -6 -25 0 -5 -28 -9 -62 -8 l-63 0 47 15
c26 8 50 19 53 24 11 17 38 12 31 -6z m42 -9 c-3 -3 -9 2 -12 12 -6 14 -5 15
5 6 7 -7 10 -15 7 -18z m-3953 -163 c363 3 625 11 625 19 0 5 -10 9 -22 10
-13 0 -18 3 -11 5 6 3 26 1 45 -5 22 -6 27 -10 13 -11 -15 -1 -13 -4 10 -11
17 -6 151 -12 300 -15 148 -3 271 -7 274 -10 2 -2 -39 -4 -93 -4 -54 0 -105
-4 -114 -9 -9 -4 -77 -4 -152 0 -98 6 -145 5 -170 -3 l-35 -12 50 -7 c28 -3
66 -10 85 -14 19 -4 32 -4 28 0 -4 5 -25 12 -45 16 -34 7 -33 8 11 4 27 -3 81
-5 120 -6 45 0 64 -3 51 -8 -17 -7 -15 -9 13 -13 17 -2 32 -1 32 4 0 13 316 8
364 -5 33 -9 40 -8 51 6 10 14 29 17 121 15 95 -1 101 -2 49 -8 -33 -4 -58 -8
-55 -9 3 -1 66 -5 140 -8 74 -3 141 -8 148 -13 17 -8 62 -1 62 11 0 5 60 7
133 5 73 -2 121 0 107 4 -19 6 -12 8 31 9 30 1 59 -3 65 -8 5 -4 27 -6 49 -3
33 4 37 6 20 14 -12 5 12 6 63 3 56 -4 81 -2 77 5 -7 11 237 15 247 4 7 -6
-61 -124 -71 -124 -3 0 -21 -14 -40 -30 -18 -17 -36 -30 -40 -31 -3 0 -13 -2
-21 -4 -76 -17 -291 -43 -360 -45 -292 -5 -359 -4 -440 3 -41 4 -208 9 -370
12 -279 5 -396 10 -465 20 -16 2 -73 7 -125 10 -52 4 -99 10 -105 13 -5 4 -64
12 -130 19 -66 6 -154 17 -195 23 -41 6 -113 14 -160 19 -74 7 -92 13 -139 45
-29 20 -59 36 -67 36 -15 0 -59 25 -82 47 -7 7 -26 20 -42 30 -38 22 -38 31 0
25 18 -2 30 0 30 7 0 6 14 2 33 -9 24 -14 50 -19 102 -18z m734 12 c2 -2 -7
-4 -22 -4 -14 0 -29 5 -32 10 -6 10 42 4 54 -6z m3108 -3 c63 -9 114 -37 176
-95 16 -15 39 -33 51 -41 13 -9 35 -39 50 -69 48 -94 40 -188 -24 -272 -46
-61 -66 -74 -118 -78 -46 -4 -70 8 -82 40 -11 27 2 59 31 81 25 19 29 60 9 78
-15 14 -23 14 -76 -1 -125 -35 -164 -31 -164 14 1 20 11 34 39 53 67 46 60
120 -9 104 -65 -14 -140 -17 -155 -5 -13 11 -13 16 1 48 18 45 88 119 129 137
36 16 62 17 142 6z m-2754 -8 c-7 -2 -21 -2 -30 0 -10 3 -4 5 12 5 17 0 24 -2
18 -5z m894 1 c-3 -3 -12 -4 -19 -1 -8 3 -5 6 6 6 11 1 17 -2 13 -5z m583 -14
c-167 -6 -360 1 -275 10 28 3 133 3 235 0 l185 -4 -145 -6z m-407 3 c-29 -2
-78 -2 -110 0 -32 2 -8 3 52 3 61 0 87 -1 58 -3z m-863 -9 c0 -8 -19 -13 -24
-6 -3 5 1 9 9 9 8 0 15 -2 15 -3z m105 -4 c-27 -12 -43 -12 -25 0 8 5 22 9 30
9 10 0 8 -3 -5 -9z m670 -9 c88 -8 76 -9 -90 -5 -258 6 -437 13 -442 18 -7 7
430 -3 532 -13z m168 2 c-7 -2 -19 -2 -25 0 -7 3 -2 5 12 5 14 0 19 -2 13 -5z
m-2253 -427 c38 -117 -43 -247 -162 -257 -48 -4 -55 4 -35 43 8 18 30 65 47
103 17 39 35 77 40 85 6 8 20 34 31 58 l22 43 23 -22 c13 -12 28 -36 34 -53z
m2173 -308 c2 -10 6 -20 10 -24 3 -4 -3 -14 -15 -24 -31 -25 -18 -52 24 -48
18 2 38 -2 43 -9 6 -7 23 -14 40 -16 27 -3 30 -7 27 -38 -2 -19 1 -47 7 -62 6
-16 7 -27 1 -27 -14 0 -64 23 -71 33 -3 5 -9 7 -12 5 -3 -1 -39 15 -80 36
l-75 40 -10 95 c-6 52 -10 95 -9 96 1 0 25 12 52 26 l50 26 8 -46 c4 -25 8
-54 10 -63z m2227 66 c96 -8 93 -4 58 -84 -17 -38 -35 -70 -39 -70 -5 0 -9 -5
-9 -11 0 -20 -50 -72 -54 -57 -33 99 -52 151 -74 192 l-25 49 39 -7 c21 -3 68
-9 104 -12z m-1915 -215 c39 -6 78 -10 88 -10 29 0 19 -35 -20 -68 -69 -59
-152 -31 -169 59 -7 35 -7 35 101 19z m352 -34 c24 -4 31 -10 26 -22 -10 -27
-66 -72 -89 -73 -53 0 -104 51 -104 105 0 11 73 7 167 -10z m293 -15 c18 -11
-15 -75 -46 -89 -32 -14 -75 -14 -95 2 -14 11 -39 67 -39 89 0 11 163 9 180
-2z"/>
<path d="M2457 3234 c-3 -3 -54 -8 -114 -10 -59 -2 -171 -8 -248 -14 -77 -6
-207 -12 -290 -13 -163 -4 -200 -14 -189 -52 3 -11 13 -25 21 -32 20 -16 260
-27 410 -18 176 11 450 15 498 9 36 -5 42 -10 65 -56 14 -29 57 -83 98 -124
39 -39 72 -75 72 -78 0 -4 -15 -20 -33 -35 -18 -16 -39 -41 -47 -56 -8 -15
-30 -43 -48 -63 -42 -44 -52 -70 -39 -99 12 -26 63 -36 83 -16 8 8 28 34 45
59 16 24 34 44 39 44 6 0 10 8 10 18 0 9 14 31 29 49 l29 31 76 -75 c42 -42
83 -84 90 -94 7 -10 27 -22 44 -25 28 -6 33 -3 42 21 8 21 7 31 -7 50 -10 12
-37 46 -59 76 -23 30 -58 71 -78 93 l-37 38 47 42 c76 66 79 69 103 104 13 19
34 45 47 59 13 14 24 30 24 35 0 6 41 8 106 4 116 -7 335 -8 399 -2 22 2 157
4 301 5 246 1 261 3 277 21 24 28 21 53 -8 80 l-25 24 -293 -2 c-160 -1 -375
-3 -477 -4 -102 -1 -248 -1 -325 1 -77 1 -246 1 -376 0 -130 -1 -240 1 -246 4
-6 4 -13 4 -16 1z m543 -138 c0 -9 -33 -50 -74 -92 l-74 -77 -63 59 c-34 33
-73 70 -87 84 l-24 25 28 5 c16 3 88 6 161 8 114 2 133 1 133 -12z"/>
<path d="M4293 2715 c-60 -26 -28 -70 57 -79 25 -2 79 -12 120 -21 41 -10 89
-19 105 -20 17 -2 53 -6 81 -10 45 -7 53 -5 66 14 16 23 13 65 -6 79 -30 22
-216 51 -326 51 -36 0 -80 -6 -97 -14z"/>
<path d="M1335 2680 c-27 -3 -78 -19 -112 -35 -55 -26 -63 -33 -63 -58 0 -39
21 -43 119 -24 47 10 121 20 164 24 89 7 112 21 102 62 -4 14 -9 28 -12 31 -7
7 -138 7 -198 0z"/>
<path d="M4224 2375 c-14 -22 -15 -30 -5 -49 12 -21 125 -86 150 -86 6 0 11
-6 11 -12 0 -13 38 -41 108 -80 21 -11 46 -29 58 -39 39 -36 94 -19 94 28 0
28 -38 83 -57 83 -14 0 -26 8 -64 43 -10 9 -22 17 -26 17 -5 0 -28 17 -51 37
-24 20 -53 38 -64 40 -11 2 -35 10 -52 17 -63 28 -84 28 -102 1z"/>
<path d="M1520 2340 c-8 -5 -33 -17 -55 -26 -22 -10 -48 -24 -58 -32 -9 -8
-20 -13 -23 -10 -3 3 -19 -7 -36 -23 -17 -15 -44 -33 -60 -40 -15 -6 -28 -15
-28 -20 0 -5 -5 -9 -11 -9 -16 0 -38 -31 -39 -52 0 -10 11 -25 25 -34 24 -16
28 -16 63 0 21 10 46 18 55 20 9 1 23 8 29 14 7 7 15 12 19 12 4 0 38 18 75
40 38 22 76 40 85 40 19 0 69 54 69 75 0 18 -53 55 -77 54 -10 0 -25 -4 -33
-9z"/>
<path d="M1615 1350 l-90 -6 65 -4 c87 -5 213 0 223 9 10 9 -75 10 -198 1z"/>
<path d="M4260 1155 c-10 -19 -11 -32 0 -69 19 -68 44 -86 131 -93 72 -5 75
-4 101 23 37 40 58 93 47 122 -14 37 -26 31 -86 -45 -15 -19 -24 -22 -62 -16
-41 6 -45 9 -64 55 -23 54 -46 62 -67 23z"/>
<path d="M2643 923 c9 -2 23 -2 30 0 6 3 -1 5 -18 5 -16 0 -22 -2 -12 -5z"/>
<path d="M1915 901 c-33 -10 -67 -21 -76 -27 -37 -23 -143 -150 -164 -199 -41
-91 -27 -219 35 -325 40 -69 63 -92 121 -127 80 -46 251 -58 325 -23 148 72
248 302 200 460 -20 65 -58 140 -71 140 -7 0 -20 9 -30 20 -10 11 -26 20 -37
20 -10 0 -18 4 -18 9 0 5 -14 13 -32 16 -18 4 -48 15 -68 25 -51 26 -116 30
-185 11z m118 -103 c3 -13 9 -33 12 -45 7 -21 4 -23 -29 -23 -35 0 -36 1 -36
38 0 21 3 42 7 45 14 15 41 6 46 -15z m-108 -25 c-6 -42 -18 -53 -58 -53 -25
0 -27 3 -21 28 9 38 33 62 61 62 22 0 24 -3 18 -37z m265 -53 c0 -12 -30 -13
-46 -2 -6 4 -19 22 -28 41 l-18 33 46 -31 c25 -18 46 -36 46 -41z m-400 -9 c0
-5 -7 -12 -16 -15 -14 -5 -15 -4 -4 9 14 17 20 19 20 6z m124 -78 c-2 -21 -3
-45 -3 -55 -1 -13 -11 -16 -44 -16 -38 1 -43 4 -41 22 1 12 3 33 3 48 1 27 13
33 67 37 18 1 21 -4 18 -36z m143 23 c1 -1 3 -19 5 -41 l3 -40 -48 -3 -49 -3
3 43 c1 24 4 47 7 51 3 7 71 1 79 -7z m151 -27 c13 -5 22 -17 22 -29 0 -17 -6
-20 -45 -20 -45 0 -45 0 -45 36 0 38 0 38 68 13z m-443 -26 c-5 -33 -18 -52
-36 -53 -5 0 -1 53 6 78 3 6 12 12 20 12 13 0 15 -7 10 -37z m5 -112 c0 -11 3
-26 6 -35 4 -10 1 -16 -9 -16 -18 0 -22 5 -31 43 -5 23 -3 27 14 27 13 0 20
-7 20 -19z m138 3 c2 -1 6 -21 8 -43 5 -40 4 -41 -25 -41 -33 0 -44 14 -55 67
l-7 32 38 -6 c21 -3 39 -7 41 -9z m322 2 c0 -20 -15 -33 -49 -44 -59 -21 -64
-16 -46 44 4 15 95 14 95 0z m-170 -29 c0 -39 -15 -57 -47 -57 -17 0 -24 7
-29 28 -3 15 -7 32 -9 39 -6 18 5 23 47 23 36 0 38 -1 38 -33z m60 -111 c0 -2
-7 -9 -15 -16 -13 -11 -14 -10 -9 4 5 14 24 23 24 12z m-192 -33 c2 -8 -6 -13
-22 -13 -17 0 -26 5 -26 16 0 19 41 16 48 -3z m112 13 c0 -8 -31 -36 -41 -36
-5 0 -9 9 -9 20 0 15 7 20 25 20 14 0 25 -2 25 -4z"/>
<path d="M3424 876 c-3 -8 -4 -29 -2 -48 2 -25 8 -33 23 -33 15 0 21 8 23 33
5 47 -30 84 -44 48z"/>
<path d="M3506 874 c-11 -28 -6 -72 9 -88 16 -16 44 -12 46 8 6 48 4 82 -5 88
-19 13 -44 9 -50 -8z"/>
<path d="M1380 777 c-8 -7 -17 -23 -18 -36 -6 -39 -50 -133 -82 -173 -17 -20
-30 -40 -30 -45 -1 -4 -20 -21 -43 -38 -23 -16 -55 -40 -72 -52 -16 -13 -45
-24 -63 -26 -37 -4 -69 -34 -64 -60 2 -9 22 -27 45 -38 90 -45 121 -107 115
-232 l-3 -77 97 0 c83 0 97 2 102 18 3 9 8 69 11 132 4 63 11 147 16 185 6 39
12 86 14 105 5 40 17 118 21 140 2 8 9 52 15 97 10 66 9 86 -1 98 -15 18 -39
19 -60 2z"/>
<path d="M2631 535 c0 -60 3 -116 8 -124 8 -12 4 200 -4 224 -2 6 -4 -39 -4
-100z"/>
<path d="M5237 538 c-7 -25 21 -78 40 -78 8 0 13 12 13 31 0 17 -4 28 -10 24
-5 -3 -7 0 -4 9 3 8 -3 19 -14 25 -16 9 -21 7 -25 -11z"/>
<path d="M5203 332 c-18 -12 -3 -72 17 -72 18 0 29 23 22 52 -4 19 -24 29 -39
20z"/>
<path d="M5347 222 c-3 -4 -3 -19 0 -35 4 -20 11 -27 29 -27 26 0 31 18 14 51
-11 19 -35 26 -43 11z"/>
<path d="M5177 118 c2 -24 6 -49 8 -55 5 -16 31 -7 39 13 7 18 -14 65 -25 58
-5 -3 -9 2 -9 10 0 9 -4 16 -9 16 -5 0 -7 -19 -4 -42z"/>
</g>
</svg>
